<?xml version="1.0" encoding="UTF-8" standalone="no"?><!DOCTYPE svg PUBLIC "-//W3C//DTD SVG 1.1//EN" "http://www.w3.org/Graphics/SVG/1.1/DTD/svg11.dtd"><svg width="100%" height="100%" viewBox="0 0 8000 973" version="1.1" xmlns="http://www.w3.org/2000/svg" xmlns:xlink="http://www.w3.org/1999/xlink" xml:space="preserve" xmlns:serif="http://www.serif.com/" style="fill-rule:evenodd;clip-rule:evenodd;stroke-linejoin:round;stroke-miterlimit:2;"><rect id="Artboard1" x="0" y="0" width="8000" height="972.779" style="fill:none;"/><clipPath id="_clip1"><rect x="0" y="0" width="8000" height="972.779"/></clipPath><g clip-path="url(#_clip1)"><path d="M-663.296,632.068c0,0 273.444,332.216 914.624,513.425c641.179,181.208 2027.26,201.343 2461,40.268c433.739,-161.074 1932.97,-412.753 2489.28,-211.41c556.317,201.343 -978.553,604.029 2753.3,191.276c3731.85,-412.753 2317.49,-523.491 2317.49,-523.491l-1037.2,-191.276c0,0 -537.459,-251.679 -1508.66,-70.47c-971.198,181.208 -1782.1,442.954 -1602.95,20.134c179.153,-422.82 -2423.28,-483.223 -3498.2,90.604c-1074.92,573.828 -2347.85,50.336 -2659.01,-161.074c-311.161,-211.41 -763.758,-523.491 -763.758,-523.491l-414.881,352.35l-132.008,533.558l405.452,513.425l275.519,-573.828Z" style="fill:#a4c6ff;"/><path d="M-636.378,741.614c0,0 265.848,302.516 889.216,467.525c623.367,165.009 1970.94,183.344 2392.63,36.669c421.69,-146.675 1879.27,-375.854 2420.13,-192.511c540.863,183.344 -951.369,550.03 2676.81,174.177c3628.18,-375.854 2253.11,-476.693 2253.11,-476.693l-1008.39,-174.176c0,0 -522.529,-229.18 -1466.75,-64.171c-944.218,165.01 -1732.6,403.356 -1558.42,18.335c174.177,-385.021 -2355.96,-440.024 -3401.02,82.504c-1045.06,522.529 -2282.62,45.836 -2585.14,-146.674c-302.517,-192.511 -742.541,-476.693 -742.541,-476.693l-403.355,320.851l-128.341,485.86l394.189,467.525l267.864,-522.528Z" style="fill:#24457e;"/></g></svg>