<?xml version="1.0" encoding="UTF-8" standalone="no"?><!DOCTYPE svg PUBLIC "-//W3C//DTD SVG 1.1//EN" "http://www.w3.org/Graphics/SVG/1.1/DTD/svg11.dtd"><svg width="100%" height="100%" viewBox="0 0 8000 914" version="1.1" xmlns="http://www.w3.org/2000/svg" xmlns:xlink="http://www.w3.org/1999/xlink" xml:space="preserve" xmlns:serif="http://www.serif.com/" style="fill-rule:evenodd;clip-rule:evenodd;stroke-linejoin:round;stroke-miterlimit:2;"><rect id="Artboard2" x="0" y="0" width="8000" height="913.827" style="fill:none;"/><clipPath id="_clip1"><rect x="0" y="0" width="8000" height="913.827"/></clipPath><g clip-path="url(#_clip1)"><path d="M-719.045,242.521c0,0 1087.73,-351.061 1548.27,-153.294c632.551,271.636 576.391,-294.8 858.444,153.294c145.2,230.676 679.521,-194.622 1946.83,107.305c818.94,195.107 1378.29,490.54 2452.7,-229.94c324.597,-217.67 272.985,488.577 1011.74,229.94c578.913,-202.677 1471.62,-183.952 1701.56,107.306c229.94,291.258 153.294,797.127 153.294,797.127l137.964,2222.76l-4353.54,459.881l-5963.12,-475.21l505.869,-3219.17Z" style="fill:#a4c6ff;"/><path d="M-765.033,533.779c0,0 1087.73,-351.061 1548.27,-153.294c632.551,271.636 576.391,-294.8 858.444,153.294c145.2,230.676 679.521,-194.622 1946.83,107.305c818.939,195.106 1378.29,490.54 2452.7,-229.94c324.596,-217.67 272.985,488.577 1011.74,229.94c578.913,-202.677 1471.62,-183.952 1701.56,107.306c229.94,291.258 153.293,797.127 153.293,797.127l137.965,2222.76l-4353.54,459.881l-5963.12,-475.21l505.87,-3219.17Z" style="fill:#24457e;"/></g></svg>