<?xml version="1.0" encoding="UTF-8" standalone="no"?><!DOCTYPE svg PUBLIC "-//W3C//DTD SVG 1.1//EN" "http://www.w3.org/Graphics/SVG/1.1/DTD/svg11.dtd"><svg width="100%" height="100%" viewBox="0 0 8000 952" version="1.1" xmlns="http://www.w3.org/2000/svg" xmlns:xlink="http://www.w3.org/1999/xlink" xml:space="preserve" xmlns:serif="http://www.serif.com/" style="fill-rule:evenodd;clip-rule:evenodd;stroke-linejoin:round;stroke-miterlimit:2;"><rect id="Artboard9" x="0" y="0" width="8000" height="951.743" style="fill:none;"/><clipPath id="_clip1"><rect x="0" y="0" width="8000" height="951.743"/></clipPath><g clip-path="url(#_clip1)"><path d="M-289.858,185.777c0,0 256.681,-210.845 660.037,-137.508c403.357,73.338 491.07,446.474 861.717,220.013c232.6,-142.117 460.724,201.939 761.859,17.451c99.196,-60.771 200.696,-301.634 640.721,-17.451c440.025,284.183 550.032,440.025 953.388,284.183c403.356,-155.842 797.546,-403.357 1173.4,-192.511c375.855,210.845 506.766,292.77 889.217,110.006c506.836,-242.204 431.87,141.468 925.887,-238.347c292.332,-224.754 344.936,-161.489 528.279,21.855c183.344,183.344 452.61,289.83 681.79,188.991c229.18,-100.84 605.035,-36.669 605.035,-36.669l-100.839,623.369l55.003,650.871c0,0 -3071.01,577.533 -3217.68,577.533l-4528.59,0l-990.057,-1650.1l100.84,-421.691Z" style="fill:#a4c6ff;"/><path d="M-289.858,437.875c0,0 256.681,-210.846 660.037,-137.508c403.357,73.338 491.07,446.474 861.717,220.013c232.6,-142.117 460.724,201.938 761.859,17.451c99.196,-60.771 200.696,-301.634 640.721,-17.451c440.025,284.183 550.032,440.025 953.388,284.183c403.356,-155.843 797.546,-403.357 1173.4,-192.511c375.855,210.845 506.766,292.77 889.217,110.006c506.836,-242.205 431.87,141.468 925.887,-238.347c292.332,-224.754 344.936,-161.489 528.279,21.854c183.344,183.344 452.61,289.83 681.79,188.991c229.18,-100.839 605.035,-36.669 605.035,-36.669l-100.839,623.37l55.003,650.87c0,0 -3071.01,577.533 -3217.68,577.533l-4528.59,0l-990.057,-1650.09l100.84,-421.691Z" style="fill:#fff;"/></g></svg>